<?xml version="1.0" encoding="UTF-8" standalone="no"?>
<svg
   xmlns:dc="http://purl.org/dc/elements/1.1/"
   xmlns:cc="http://creativecommons.org/ns#"
   xmlns:rdf="http://www.w3.org/1999/02/22-rdf-syntax-ns#"
   xmlns:svg="http://www.w3.org/2000/svg"
   xmlns="http://www.w3.org/2000/svg"
   viewBox="0 0 666.66669 666.66669"
   height="48"
   width="48"
   xml:space="preserve"
   id="svg2"
   version="1.1"><metadata
     id="metadata8"><rdf:RDF><cc:Work
         rdf:about=""><dc:format>image/svg+xml</dc:format><dc:type
           rdf:resource="http://purl.org/dc/dcmitype/StillImage" /></cc:Work></rdf:RDF></metadata><defs
     id="defs6"><clipPath
       id="clipPath18"
       clipPathUnits="userSpaceOnUse"><path
         id="path16"
         d="M 0,500 H 500 V 0 H 0 Z" /></clipPath></defs><g
     transform="matrix(1.3333333,0,0,-1.3333333,0,666.66667)"
     id="g10"><g
       id="g12"><g
         clip-path="url(#clipPath18)"
         id="g14"><g
           transform="translate(463.1328,250)"
           id="g20"><path
             id="path22"
             style="fill:none;stroke:#FFFFFF;stroke-width:15;stroke-linecap:butt;stroke-linejoin:miter;stroke-miterlimit:10;stroke-dasharray:none;stroke-opacity:1"
             d="m 0,0 c 0,-117.71 -95.423,-213.133 -213.133,-213.133 -117.71,0 -213.133,95.423 -213.133,213.133 0,117.709 95.423,213.133 213.133,213.133 C -95.423,213.133 0,117.709 0,0 Z" /></g><g
           transform="translate(85.1499,114.9063)"
           id="g24"><path
             id="path26"
             style="fill:none;stroke:#FFFFFF;stroke-width:15;stroke-linecap:round;stroke-linejoin:round;stroke-miterlimit:10;stroke-dasharray:none;stroke-opacity:1"
             d="M 0,0 58.41,312.116 164.85,-78.039 271.291,312.116 330.205,0" /></g><g
           transform="translate(40.5425,277.6006)"
           id="g28"><path
             id="path30"
             style="fill:none;stroke:#FFFFFF;stroke-width:15;stroke-linecap:round;stroke-linejoin:round;stroke-miterlimit:10;stroke-dasharray:none;stroke-opacity:1"
             d="M 0,0 H 420.817 L 280.422,-162.694 H 422.59" /></g></g></g></g></svg>