<?xml version="1.0" standalone="yes"?>
<svg xmlns="http://www.w3.org/2000/svg" width="48" height="48">
<path style="fill:#47714d; stroke:none;" d="M0 0L0 48L48 48L48 0L0 0z"/>
<path style="fill:#ffffff; stroke:none;" d="M46 38L46 36L42 36C54.3183 17.2082 32.6791 -6.37726 13.0008 5.35262C-6.27034 16.8398 2.90472 46.4934 25 45.9776C33.1948 45.7864 38.1104 38.5895 46 38z"/>
<path style="fill:#47714d; stroke:none;" d="M15 7L18 20L30 20L33 7C26.9836 4.46129 21.0164 4.46129 15 7M11 9L5 20C10.7089 19.5447 12.879 14.241 11 9M36 9L38 20L43 20L36 9M14 14C13.166 17.1374 12.4114 19.231 16 20L14 14M33 14L32 20C35.73 19.2007 35.3808 16.3808 33 14M5 23L7 34L8 34L10 23L5 23M12 23C9.96516 33.8 8.85598 41.0226 22 43C21.1003 36.3243 19.9868 23.6369 12 23M19 23L24 39L25 39L29 23L19 23M31 23L26 43L37 39L37 38L30 38C32.8431 32.5113 37.0116 29.6029 36 23L31 23M39 23L39 25L41 23L39 23M42 25L40 34L41 34L42 25M37 31L34 36L39 36L37 31z"/>
</svg>
